<?xml version="1.0" encoding="iso-8859-1"?>
<!-- Generator: Adobe Illustrator 18.0.0, SVG Export Plug-In . SVG Version: 6.00 Build 0)  -->
<!DOCTYPE svg PUBLIC "-//W3C//DTD SVG 1.1//EN" "http://www.w3.org/Graphics/SVG/1.1/DTD/svg11.dtd">
<svg version="1.1" id="Capa_1" xmlns="http://www.w3.org/2000/svg" xmlns:xlink="http://www.w3.org/1999/xlink" x="0px" y="0px"
	 viewBox="0 0 424.282 424.282" style="enable-background:new 0 0 424.282 424.282;" xml:space="preserve">
<path style="fill:#E59683;" d="M421.581,357.031l2.577,24.879c1.398,13.493-9.187,25.231-22.753,25.231h-25.014
	C376.391,381.071,396.191,359.641,421.581,357.031z"/>
<path style="fill:#E59683;" d="M47.881,407.141H22.877c-13.565,0-24.15-11.738-22.753-25.231l2.577-24.879
	C28.081,359.641,47.881,381.071,47.881,407.141z"/>
<path style="fill:#B6CCE0;" d="M397.081,120.421l24.5,236.61c-25.39,2.61-45.19,24.04-45.19,50.11H47.881
	c0-26.07-19.8-47.5-45.18-50.11l24.5-236.61c1.07-10.35,9.79-18.22,20.2-18.22h89.68h150.12h89.67
	C387.281,102.201,396.011,110.071,397.081,120.421z M323.631,174.971c0-6.39-2.44-12.79-7.32-17.67c-9.76-9.76-25.59-9.76-35.35,0
	l-7.78,7.78l-160.52,160.51l-12.02,47.38l47.38-12.02l160.51-160.52l7.78-7.78C321.191,187.771,323.631,181.371,323.631,174.971z"/>
<path style="fill:#EAE8DC;" d="M316.311,157.301c4.88,4.88,7.32,11.28,7.32,17.67c0,6.4-2.44,12.8-7.32,17.68l-7.78,7.78
	l-35.35-35.35l7.78-7.78C290.721,147.541,306.551,147.541,316.311,157.301z"/>
<polygon style="fill:#999999;" points="308.531,200.431 148.021,360.951 112.661,325.591 273.181,165.081 "/>
<polygon style="fill:#EAE8DC;" points="148.021,360.951 100.641,372.971 112.661,325.591 "/>
<path style="fill:#999999;" d="M297.201,102.201h-20v-47.97c0-9.423-7.667-17.09-17.09-17.09h-95.94
	c-9.423,0-17.09,7.667-17.09,17.09v47.97h-20v-47.97c0-20.452,16.638-37.09,37.09-37.09h95.94c20.452,0,37.09,16.638,37.09,37.09
	V102.201z"/>
<g>
</g>
<g>
</g>
<g>
</g>
<g>
</g>
<g>
</g>
<g>
</g>
<g>
</g>
<g>
</g>
<g>
</g>
<g>
</g>
<g>
</g>
<g>
</g>
<g>
</g>
<g>
</g>
<g>
</g>
</svg>
